<svg width="199" height="38" viewBox="0 0 199 38" fill="none" xmlns="http://www.w3.org/2000/svg">
<g clip-path="url(#clip0)">
<path d="M28.7116 8.15159C24.1706 4.4368 18.1351 3.59124 13.1213 4.71159C7.51186 -1.98715 1.226 1.09401 0 1.97977C0 1.97977 4.31374 6.51819 3.61308 10.4932C-1.49399 16.939 0.933817 24.1157 3.61308 27.5046C4.31374 31.4795 0 36.018 0 36.018C1.2142 36.9067 7.48293 39.9783 13.1213 33.3139C18.1238 34.427 24.1594 33.5887 28.7116 29.8673C35.7513 24.3028 35.7743 13.7446 28.7116 8.15086V8.15159ZM17.3648 29.8315C15.6092 29.8378 13.8606 29.5584 12.1638 29.0006L10.9969 30.3957C10.3486 31.174 9.62284 31.8467 8.83703 32.3975C7.88364 32.9918 6.84794 33.3571 5.78471 33.474C5.84374 33.3439 5.89568 33.2138 5.94822 33.091C7.11578 30.4113 7.4306 28.0071 6.89266 25.8785C4.97249 24.0068 3.82322 21.6149 3.82322 18.9992C3.82322 13.0065 9.88772 8.15159 17.3648 8.15159C24.8418 8.15159 30.9063 13.0065 30.9063 18.9992C30.9063 24.992 24.8418 29.8315 17.3648 29.8315ZM10.8682 21.579C10.3321 21.5884 9.81485 21.3343 9.42981 20.8724C9.04477 20.4105 8.82333 19.7784 8.81401 19.1147C8.77269 15.7975 12.8179 15.7251 12.8586 19.035V19.0723C12.8611 19.3989 12.8115 19.7228 12.7128 20.0257C12.6141 20.3285 12.4682 20.6043 12.2833 20.8372C12.0985 21.0702 11.8783 21.2557 11.6355 21.3833C11.3927 21.5108 11.1319 21.5778 10.8682 21.5805V21.579ZM15.2226 19.1147C15.176 15.7975 19.2212 15.7178 19.2678 19.0277V19.0723C19.2908 22.3669 15.2693 22.4027 15.2226 19.1147ZM23.686 21.579C23.1499 21.5884 22.6326 21.3343 22.2474 20.8724C21.8623 20.4105 21.6407 19.7785 21.6313 19.1147C21.5905 15.7975 25.6357 15.7251 25.6764 19.035V19.0723C25.6798 19.3992 25.6309 19.7236 25.5325 20.0269C25.434 20.3302 25.2881 20.6064 25.1031 20.8396C24.9181 21.0728 24.6976 21.2583 24.4544 21.3854C24.2112 21.5126 23.95 21.5789 23.686 21.5805V21.579Z" fill="white"/>
<path d="M62.646 25.856C62.7953 25.856 62.926 25.9167 63.038 26.038L64.116 27.2C63.2947 28.152 62.296 28.894 61.12 29.426C59.9533 29.958 58.5393 30.224 56.878 30.224C55.4407 30.224 54.134 29.9767 52.958 29.482C51.782 28.978 50.7787 28.278 49.948 27.382C49.1173 26.4767 48.4733 25.394 48.016 24.134C47.5587 22.874 47.33 21.488 47.33 19.976C47.33 18.464 47.568 17.078 48.044 15.818C48.52 14.558 49.1873 13.4753 50.046 12.57C50.914 11.6647 51.95 10.9647 53.154 10.47C54.358 9.966 55.688 9.714 57.144 9.714C58.572 9.714 59.832 9.94267 60.924 10.4C62.016 10.8573 62.9773 11.478 63.808 12.262L62.912 13.508C62.856 13.6013 62.7813 13.6807 62.688 13.746C62.604 13.802 62.4873 13.83 62.338 13.83C62.17 13.83 61.9647 13.7413 61.722 13.564C61.4793 13.3773 61.162 13.172 60.77 12.948C60.378 12.724 59.888 12.5233 59.3 12.346C58.712 12.1593 57.9887 12.066 57.13 12.066C56.094 12.066 55.1467 12.248 54.288 12.612C53.4293 12.9667 52.6873 13.4847 52.062 14.166C51.446 14.8473 50.9653 15.678 50.62 16.658C50.2747 17.638 50.102 18.744 50.102 19.976C50.102 21.2267 50.2793 22.342 50.634 23.322C50.998 24.302 51.488 25.1327 52.104 25.814C52.7293 26.486 53.462 26.9993 54.302 27.354C55.1513 27.7087 56.066 27.886 57.046 27.886C57.6433 27.886 58.18 27.8533 58.656 27.788C59.1413 27.7133 59.5847 27.6013 59.986 27.452C60.3967 27.3027 60.7747 27.116 61.12 26.892C61.4747 26.6587 61.8247 26.3833 62.17 26.066C62.3287 25.926 62.4873 25.856 62.646 25.856ZM69.1831 17.708C69.7898 17.064 70.4618 16.5507 71.1991 16.168C71.9365 15.7853 72.7858 15.594 73.7471 15.594C74.5218 15.594 75.2031 15.7247 75.7911 15.986C76.3885 16.238 76.8831 16.602 77.2751 17.078C77.6765 17.5447 77.9798 18.1093 78.1851 18.772C78.3905 19.4347 78.4931 20.1673 78.4931 20.97V30H75.9871V20.97C75.9871 19.8967 75.7398 19.066 75.2451 18.478C74.7598 17.8807 74.0178 17.582 73.0191 17.582C72.2818 17.582 71.5911 17.7593 70.9471 18.114C70.3125 18.4687 69.7245 18.9493 69.1831 19.556V30H66.6771V9.378H69.1831V17.708ZM89.9764 23.616C88.8284 23.6533 87.8484 23.7467 87.0364 23.896C86.2337 24.036 85.5757 24.2227 85.0624 24.456C84.5584 24.6893 84.1897 24.9647 83.9564 25.282C83.7324 25.5993 83.6204 25.954 83.6204 26.346C83.6204 26.7193 83.6811 27.0413 83.8024 27.312C83.9237 27.5827 84.0871 27.8067 84.2924 27.984C84.5071 28.152 84.7544 28.278 85.0344 28.362C85.3237 28.4367 85.6317 28.474 85.9584 28.474C86.3971 28.474 86.7984 28.432 87.1624 28.348C87.5264 28.2547 87.8671 28.124 88.1844 27.956C88.5111 27.788 88.8191 27.5873 89.1084 27.354C89.4071 27.1207 89.6964 26.8547 89.9764 26.556V23.616ZM81.9264 17.82C82.7104 17.064 83.5551 16.4993 84.4604 16.126C85.3657 15.7527 86.3691 15.566 87.4704 15.566C88.2637 15.566 88.9684 15.6967 89.5844 15.958C90.2004 16.2193 90.7184 16.5833 91.1384 17.05C91.5584 17.5167 91.8757 18.0813 92.0904 18.744C92.3051 19.4067 92.4124 20.1347 92.4124 20.928V30H91.3064C91.0637 30 90.8771 29.9627 90.7464 29.888C90.6157 29.804 90.5131 29.6453 90.4384 29.412L90.1584 28.068C89.7851 28.4133 89.4211 28.7213 89.0664 28.992C88.7117 29.2533 88.3384 29.4773 87.9464 29.664C87.5544 29.8413 87.1344 29.9767 86.6864 30.07C86.2477 30.1727 85.7577 30.224 85.2164 30.224C84.6657 30.224 84.1477 30.1493 83.6624 30C83.1771 29.8413 82.7524 29.608 82.3884 29.3C82.0337 28.992 81.7491 28.6047 81.5344 28.138C81.3291 27.662 81.2264 27.102 81.2264 26.458C81.2264 25.898 81.3804 25.3613 81.6884 24.848C81.9964 24.3253 82.4957 23.8633 83.1864 23.462C83.8771 23.0607 84.7777 22.734 85.8884 22.482C86.9991 22.2207 88.3617 22.0713 89.9764 22.034V20.928C89.9764 19.8267 89.7384 18.996 89.2624 18.436C88.7864 17.8667 88.0911 17.582 87.1764 17.582C86.5604 17.582 86.0424 17.6613 85.6224 17.82C85.2117 17.9693 84.8524 18.142 84.5444 18.338C84.2457 18.5247 83.9844 18.6973 83.7604 18.856C83.5457 19.0053 83.3311 19.08 83.1164 19.08C82.9484 19.08 82.8037 19.038 82.6824 18.954C82.5611 18.8607 82.4584 18.7487 82.3744 18.618L81.9264 17.82ZM100.371 30.224C99.251 30.224 98.3876 29.9113 97.781 29.286C97.1836 28.6607 96.885 27.76 96.885 26.584V17.904H95.177C95.0276 17.904 94.9016 17.862 94.799 17.778C94.6963 17.6847 94.645 17.5447 94.645 17.358V16.364L96.969 16.07L97.543 11.688C97.571 11.548 97.6316 11.436 97.725 11.352C97.8276 11.2587 97.9583 11.212 98.117 11.212H99.377V16.098H103.479V17.904H99.377V26.416C99.377 27.0133 99.5216 27.4567 99.811 27.746C100.1 28.0353 100.474 28.18 100.931 28.18C101.192 28.18 101.416 28.1473 101.603 28.082C101.799 28.0073 101.967 27.928 102.107 27.844C102.247 27.76 102.364 27.6853 102.457 27.62C102.56 27.5453 102.648 27.508 102.723 27.508C102.854 27.508 102.97 27.5873 103.073 27.746L103.801 28.936C103.372 29.3373 102.854 29.6547 102.247 29.888C101.64 30.112 101.015 30.224 100.371 30.224ZM105.828 20.55H112.744V22.664H105.828V20.55ZM131.115 25.856C131.264 25.856 131.395 25.9167 131.507 26.038L132.585 27.2C131.763 28.152 130.765 28.894 129.589 29.426C128.422 29.958 127.008 30.224 125.347 30.224C123.909 30.224 122.603 29.9767 121.427 29.482C120.251 28.978 119.247 28.278 118.417 27.382C117.586 26.4767 116.942 25.394 116.485 24.134C116.027 22.874 115.799 21.488 115.799 19.976C115.799 18.464 116.037 17.078 116.513 15.818C116.989 14.558 117.656 13.4753 118.515 12.57C119.383 11.6647 120.419 10.9647 121.623 10.47C122.827 9.966 124.157 9.714 125.613 9.714C127.041 9.714 128.301 9.94267 129.393 10.4C130.485 10.8573 131.446 11.478 132.277 12.262L131.381 13.508C131.325 13.6013 131.25 13.6807 131.157 13.746C131.073 13.802 130.956 13.83 130.807 13.83C130.639 13.83 130.433 13.7413 130.191 13.564C129.948 13.3773 129.631 13.172 129.239 12.948C128.847 12.724 128.357 12.5233 127.769 12.346C127.181 12.1593 126.457 12.066 125.599 12.066C124.563 12.066 123.615 12.248 122.757 12.612C121.898 12.9667 121.156 13.4847 120.531 14.166C119.915 14.8473 119.434 15.678 119.089 16.658C118.743 17.638 118.571 18.744 118.571 19.976C118.571 21.2267 118.748 22.342 119.103 23.322C119.467 24.302 119.957 25.1327 120.573 25.814C121.198 26.486 121.931 26.9993 122.771 27.354C123.62 27.7087 124.535 27.886 125.515 27.886C126.112 27.886 126.649 27.8533 127.125 27.788C127.61 27.7133 128.053 27.6013 128.455 27.452C128.865 27.3027 129.243 27.116 129.589 26.892C129.943 26.6587 130.293 26.3833 130.639 26.066C130.797 25.926 130.956 25.856 131.115 25.856ZM144.364 21.362C144.364 20.7833 144.28 20.256 144.112 19.78C143.954 19.2947 143.716 18.8793 143.398 18.534C143.09 18.1793 142.712 17.9087 142.264 17.722C141.816 17.526 141.308 17.428 140.738 17.428C139.544 17.428 138.596 17.778 137.896 18.478C137.206 19.1687 136.776 20.13 136.608 21.362H144.364ZM146.38 28.012C146.072 28.3853 145.704 28.712 145.274 28.992C144.845 29.2627 144.383 29.4867 143.888 29.664C143.403 29.8413 142.899 29.972 142.376 30.056C141.854 30.1493 141.336 30.196 140.822 30.196C139.842 30.196 138.937 30.0327 138.106 29.706C137.285 29.37 136.571 28.8847 135.964 28.25C135.367 27.606 134.9 26.8127 134.564 25.87C134.228 24.9273 134.06 23.8447 134.06 22.622C134.06 21.6327 134.21 20.7087 134.508 19.85C134.816 18.9913 135.255 18.2493 135.824 17.624C136.394 16.9893 137.089 16.4947 137.91 16.14C138.732 15.776 139.656 15.594 140.682 15.594C141.532 15.594 142.316 15.7387 143.034 16.028C143.762 16.308 144.388 16.7187 144.91 17.26C145.442 17.792 145.858 18.4547 146.156 19.248C146.455 20.032 146.604 20.928 146.604 21.936C146.604 22.328 146.562 22.5893 146.478 22.72C146.394 22.8507 146.236 22.916 146.002 22.916H136.524C136.552 23.812 136.674 24.5913 136.888 25.254C137.112 25.9167 137.42 26.472 137.812 26.92C138.204 27.3587 138.671 27.69 139.212 27.914C139.754 28.1287 140.36 28.236 141.032 28.236C141.658 28.236 142.194 28.166 142.642 28.026C143.1 27.8767 143.492 27.718 143.818 27.55C144.145 27.382 144.416 27.228 144.63 27.088C144.854 26.9387 145.046 26.864 145.204 26.864C145.41 26.864 145.568 26.9433 145.68 27.102L146.38 28.012ZM152.017 17.876C152.325 17.5307 152.652 17.218 152.997 16.938C153.343 16.658 153.707 16.42 154.089 16.224C154.481 16.0187 154.892 15.8647 155.321 15.762C155.76 15.65 156.231 15.594 156.735 15.594C157.51 15.594 158.191 15.7247 158.779 15.986C159.377 16.238 159.871 16.602 160.263 17.078C160.665 17.5447 160.968 18.1093 161.173 18.772C161.379 19.4347 161.481 20.1673 161.481 20.97V30H158.975V20.97C158.975 19.8967 158.728 19.066 158.233 18.478C157.748 17.8807 157.006 17.582 156.007 17.582C155.27 17.582 154.579 17.7593 153.935 18.114C153.301 18.4687 152.713 18.9493 152.171 19.556V30H149.665V15.818H151.163C151.518 15.818 151.737 15.9907 151.821 16.336L152.017 17.876ZM169.441 30.224C168.321 30.224 167.458 29.9113 166.851 29.286C166.254 28.6607 165.955 27.76 165.955 26.584V17.904H164.247C164.098 17.904 163.972 17.862 163.869 17.778C163.767 17.6847 163.715 17.5447 163.715 17.358V16.364L166.039 16.07L166.613 11.688C166.641 11.548 166.702 11.436 166.795 11.352C166.898 11.2587 167.029 11.212 167.187 11.212H168.447V16.098H172.549V17.904H168.447V26.416C168.447 27.0133 168.592 27.4567 168.881 27.746C169.171 28.0353 169.544 28.18 170.001 28.18C170.263 28.18 170.487 28.1473 170.673 28.082C170.869 28.0073 171.037 27.928 171.177 27.844C171.317 27.76 171.434 27.6853 171.527 27.62C171.63 27.5453 171.719 27.508 171.793 27.508C171.924 27.508 172.041 27.5873 172.143 27.746L172.871 28.936C172.442 29.3373 171.924 29.6547 171.317 29.888C170.711 30.112 170.085 30.224 169.441 30.224ZM184.532 21.362C184.532 20.7833 184.448 20.256 184.28 19.78C184.122 19.2947 183.884 18.8793 183.566 18.534C183.258 18.1793 182.88 17.9087 182.432 17.722C181.984 17.526 181.476 17.428 180.906 17.428C179.712 17.428 178.764 17.778 178.064 18.478C177.374 19.1687 176.944 20.13 176.776 21.362H184.532ZM186.548 28.012C186.24 28.3853 185.872 28.712 185.442 28.992C185.013 29.2627 184.551 29.4867 184.056 29.664C183.571 29.8413 183.067 29.972 182.544 30.056C182.022 30.1493 181.504 30.196 180.99 30.196C180.01 30.196 179.105 30.0327 178.274 29.706C177.453 29.37 176.739 28.8847 176.132 28.25C175.535 27.606 175.068 26.8127 174.732 25.87C174.396 24.9273 174.228 23.8447 174.228 22.622C174.228 21.6327 174.378 20.7087 174.676 19.85C174.984 18.9913 175.423 18.2493 175.992 17.624C176.562 16.9893 177.257 16.4947 178.078 16.14C178.9 15.776 179.824 15.594 180.85 15.594C181.7 15.594 182.484 15.7387 183.202 16.028C183.93 16.308 184.556 16.7187 185.078 17.26C185.61 17.792 186.026 18.4547 186.324 19.248C186.623 20.032 186.772 20.928 186.772 21.936C186.772 22.328 186.73 22.5893 186.646 22.72C186.562 22.8507 186.404 22.916 186.17 22.916H176.692C176.72 23.812 176.842 24.5913 177.056 25.254C177.28 25.9167 177.588 26.472 177.98 26.92C178.372 27.3587 178.839 27.69 179.38 27.914C179.922 28.1287 180.528 28.236 181.2 28.236C181.826 28.236 182.362 28.166 182.81 28.026C183.268 27.8767 183.66 27.718 183.986 27.55C184.313 27.382 184.584 27.228 184.798 27.088C185.022 26.9387 185.214 26.864 185.372 26.864C185.578 26.864 185.736 26.9433 185.848 27.102L186.548 28.012ZM192.199 18.66C192.647 17.6893 193.198 16.9333 193.851 16.392C194.505 15.8413 195.303 15.566 196.245 15.566C196.544 15.566 196.829 15.5987 197.099 15.664C197.379 15.7293 197.627 15.832 197.841 15.972L197.659 17.834C197.603 18.0673 197.463 18.184 197.239 18.184C197.109 18.184 196.917 18.156 196.665 18.1C196.413 18.044 196.129 18.016 195.811 18.016C195.363 18.016 194.962 18.0813 194.607 18.212C194.262 18.3427 193.949 18.5387 193.669 18.8C193.399 19.052 193.151 19.3693 192.927 19.752C192.713 20.1253 192.517 20.5547 192.339 21.04V30H189.833V15.818H191.261C191.532 15.818 191.719 15.8693 191.821 15.972C191.924 16.0747 191.994 16.252 192.031 16.504L192.199 18.66Z" fill="white"/>
</g>
<defs>
<clipPath id="clip0">
<rect width="199" height="37" fill="white" transform="translate(0 0.5)"/>
</clipPath>
</defs>
</svg>
